<?xml version="1.0" encoding="utf-8"?>
<!-- Generator: Adobe Illustrator 21.0.0, SVG Export Plug-In . SVG Version: 6.00 Build 0)  -->
<svg version="1.1" id="Capa_1" xmlns="http://www.w3.org/2000/svg" xmlns:xlink="http://www.w3.org/1999/xlink" x="0px" y="0px"
	 viewBox="0 0 16 33.8" style="enable-background:new 0 0 16 33.8;" xml:space="preserve">
<style type="text/css">
	.st0{fill:#FFFFFF;}
</style>
<g>
	<g>
		<path class="st0" d="M5.1,18.4l3.5-3.8c-1.6-0.6-2.8-1.2-2.8-2.2c0-1.2,1.2-1.7,2.3-1.7c1.3,0,2.4,0.5,3.3,0.9l3.3-3.6
			C13.8,7.4,11.6,5.9,8,5.9c-4.2,0-7.5,2.6-7.5,6.5C0.5,15.6,2.7,17.3,5.1,18.4z"/>
	</g>
	<g>
		<path class="st0" d="M10.4,15.3l-3.5,3.8c1.7,0.7,3.2,1.3,3.2,2.3c0,1.3-1.2,1.7-2.2,1.7c-1.4,0-2.6-0.6-3.6-1.1l-3.4,3.7
			C2.1,26.6,4.4,28,7.8,28c4.8,0,7.5-3.1,7.5-6.6C15.2,18,12.8,16.4,10.4,15.3z"/>
	</g> 
</g>
</svg>
